<svg width="59" height="52" fill="none" xmlns="http://www.w3.org/2000/svg"><path d="M51.68 9.19h-2.722a.858.858 0 100 1.716h2.721a.858.858 0 100-1.717zm-15.273 4.14c-4.8 0-8.705 3.906-8.705 8.708 0 4.8 3.905 8.704 8.705 8.704 4.801 0 8.707-3.905 8.707-8.704 0-4.802-3.906-8.708-8.707-8.708zm0 15.696a6.996 6.996 0 01-6.988-6.988c0-3.855 3.135-6.992 6.988-6.992a6.999 6.999 0 016.99 6.992c0 3.853-3.136 6.988-6.99 6.988z" fill="#AE7C78"/><path d="M55.381 4.606H44.954l-1.01-2.79C43.782 1.367 43.286 0 41.887 0H28.534c-1.4 0-1.894 1.367-2.057 1.817l-1.01 2.79h-8.49V2.53c0-1.13-.92-2.05-2.05-2.05h-3.823a2.05 2.05 0 00-2.046 2.05v2.112a3.221 3.221 0 00-2.726 3.18V25.38l-3.889.755a3.023 3.023 0 00-2.387 3.54L3.91 49.557a3.03 3.03 0 003.54 2.387l8.383-1.626a.858.858 0 10-.327-1.686L7.124 50.26a1.308 1.308 0 01-1.53-1.03L1.742 29.347a1.305 1.305 0 011.03-1.527l20.904-4.055c.339-.065.685.006.975.202.29.196.485.49.55.831l3.858 19.88a1.304 1.304 0 01-1.03 1.527l-8.387 1.627a.859.859 0 00.326 1.685l8.388-1.627a3.023 3.023 0 002.387-3.54L29.7 38.975h9.581a.858.858 0 100-1.717h-9.914l-.904-4.662a13.215 13.215 0 007.944 2.657c5.728 0 10.616-3.662 12.447-8.767h8.026v9.271a1.5 1.5 0 01-1.498 1.501H43.484a.858.858 0 100 1.717H55.38a3.22 3.22 0 003.215-3.218V7.824a3.22 3.22 0 00-3.215-3.218zm-27.29-2.205c.164-.454.313-.684.443-.684h13.353c.161 0 .33.372.443.684l.798 2.205H27.293l.798-2.205zm-4.899 19.637l.001.072-6.216 1.206v-4.01h6.5a13.227 13.227 0 00-.285 2.732zM10.774 2.53c0-.18.151-.333.33-.333h3.824c.183 0 .332.15.332.333v2.075h-4.486V2.531zM8.05 7.824a1.5 1.5 0 011.497-1.501h5.714v17.325l-2.905.564v-9.68c0-.825-.671-1.496-1.496-1.496H8.05V7.824zm0 6.929h2.589v9.792l-2.59.502V14.753zm28.358 18.783a11.501 11.501 0 01-8.489-3.744l-1.032-5.32a2.995 2.995 0 00-1.275-1.927 3.05 3.05 0 00-.7-.352l-.002-.155c0-6.342 5.158-11.502 11.497-11.502 6.342 0 11.502 5.16 11.502 11.502 0 6.34-5.16 11.498-11.501 11.498zm20.472-8.767h-7.54a13.215 13.215 0 000-5.463h7.54v5.463zm0-7.18h-8.026c-1.83-5.106-6.718-8.77-12.446-8.77-5.727 0-10.614 3.664-12.444 8.77h-6.986V6.324H55.38a1.5 1.5 0 011.498 1.5v9.767z" fill="#AE7C78"/><path d="M26.002 43.462c.201-.3.275-.653.207-.99L23.29 27.813c-.155-.766-.955-1.235-1.823-1.068L5.546 29.833c-.87.168-1.438.905-1.289 1.684l2.919 14.649c.064.339.265.637.564.84.262.177.583.27.917.27.113 0 .229-.01.343-.032l15.92-3.089c.45-.087.845-.34 1.082-.693zM7.64 39.66l-1.636-8.167 15.666-3.038.95 4.776-2.008.39c-3.831.743-5.103 1.89-6.333 3-1.191 1.074-2.422 2.183-6.64 3.04zm1.163 5.873l-.4-2.062-.426-2.128c4.684-.953 6.151-2.275 7.452-3.448 1.152-1.04 2.147-1.937 5.51-2.589l2.016-.392 1.509 7.581-15.661 3.038z" fill="#AE7C78"/></svg>