<svg width="21" height="20" fill="none" xmlns="http://www.w3.org/2000/svg"><path d="M5.846 0C2.622 0 0 2.604 0 5.804v8.393C0 17.397 2.622 20 5.846 20h8.505c3.224 0 5.846-2.603 5.846-5.803V5.804c0-3.2-2.622-5.804-5.846-5.804H5.846zm0 1.72h8.505c2.295 0 4.115 1.807 4.115 4.084v8.393c0 2.278-1.82 4.084-4.115 4.084H5.846c-2.295 0-4.114-1.806-4.114-4.084V5.804c0-2.277 1.82-4.085 4.114-4.085zm9.673 1.719c-.67 0-1.211.538-1.211 1.202 0 .664.542 1.202 1.21 1.202.67 0 1.212-.538 1.212-1.202 0-.664-.542-1.202-1.211-1.202zm-5.42 1.412C7.243 4.85 4.91 7.166 4.91 10s2.333 5.15 5.188 5.15c2.854 0 5.188-2.316 5.188-5.15 0-2.834-2.334-5.15-5.189-5.15zm0 1.719A3.43 3.43 0 0113.554 10a3.43 3.43 0 01-3.457 3.43A3.43 3.43 0 016.643 10a3.43 3.43 0 013.455-3.43z" fill="#D89999"/></svg>