<svg width="52" height="52" fill="none" xmlns="http://www.w3.org/2000/svg"><g clip-path="url(#clip0_1_133)" fill="#AE7C78"><path d="M35.702 13.899a3.992 3.992 0 003.26-1.658l3.827-5.27a.762.762 0 00-.491-1.2 24.533 24.533 0 00-3.402-.277 24.703 24.703 0 00-1.317-3.15.761.761 0 00-1.292-.096l-3.827 5.27a3.992 3.992 0 00-.718 2.99 3.99 3.99 0 00.994 2.074 58.13 58.13 0 00-2.718 3.5v-.666a.762.762 0 10-1.523 0v2.91a36.789 36.789 0 00-1.733 2.996v-5.59l2.219-2.22a.762.762 0 10-1.077-1.077l-1.143 1.142V11.22a4.024 4.024 0 003.257-3.945V.762A.762.762 0 0028.916.08 24.65 24.65 0 0026 1.855 24.698 24.698 0 0023.084.08a.762.762 0 00-1.103.682v6.513a4.024 4.024 0 003.257 3.945v3.986l-1.956-1.957a.762.762 0 00-1.078 1.077l3.034 3.034v3.962c-1.943-3.79-4.825-7.375-5.974-8.74a3.99 3.99 0 00.993-2.073 3.992 3.992 0 00-.717-2.99l-3.827-5.27a.761.761 0 00-1.293.096c-.032.062-.73 1.413-1.317 3.149a24.6 24.6 0 00-3.401.278.762.762 0 00-.492 1.199l3.827 5.27a3.992 3.992 0 002.622 1.607 3.972 3.972 0 002.38-.352c.236.28.561.674.946 1.159h-.669a.762.762 0 000 1.523h1.84c1.113 1.496 2.403 3.38 3.452 5.322a25.061 25.061 0 00-4.12-3.266c-4.561-2.903-8.671-3.545-8.844-3.571a.762.762 0 00-.875.753c0 .122.017 3.029 1.47 7.076 1.312 3.654 4.098 8.961 9.928 13.643v2.791l-3.23 12.116a.761.761 0 00.735.958h14.655a.762.762 0 00.736-.958l-3.231-12.116v-2.79c5.83-4.683 8.617-9.99 9.928-13.644 1.453-4.047 1.47-6.954 1.47-7.076a.762.762 0 00-.875-.753c-.1.015-2.507.387-5.676 1.846-2.076.955-4.771 2.528-7.294 5.004 1.05-1.947 2.343-3.835 3.459-5.335h1.839a.762.762 0 000-1.523h-.668c.384-.485.71-.878.944-1.159a3.974 3.974 0 001.743.403zm5.095-6.777l-1.15 1.584a12.418 12.418 0 00-.3-1.677c.536.018 1.033.054 1.45.093zM12.353 8.706l-1.15-1.584c.416-.04.912-.075 1.45-.093a12.417 12.417 0 00-.3 1.677zm5.402 3.192c-.54.392-1.2.55-1.857.446a2.478 2.478 0 01-1.628-.998c-1.092-1.504.066-5.058.968-7.158l3.07 4.225a2.498 2.498 0 01-.553 3.485zm10.74-9.843v1.954c-.35-.389-.76-.782-1.229-1.178.445-.3.868-.563 1.228-.776zm-4.99 5.22V2.053c1.964 1.168 4.99 3.363 4.99 5.222A2.498 2.498 0 0126 9.77a2.498 2.498 0 01-2.495-2.495zM12.696 22.042c-.901-2.49-1.224-4.543-1.34-5.675 1.421.346 4.275 1.218 7.315 3.152a23.057 23.057 0 016.355 5.96c1.965 2.722 3.347 5.924 4.116 9.529h-1.774c-.974-4.273-2.891-7.91-5.705-10.818a.762.762 0 10-1.095 1.06c2.543 2.627 4.3 5.907 5.234 9.758h-3.605c-5.58-4.455-8.246-9.5-9.5-12.966zm16.612 14.49v1.732h-6.617v-1.733h6.617zm3.027 13.945H29.11l-.129-.967a.762.762 0 10-1.51.2l.102.766h-7.908l2.85-10.688h3.633l.889 6.666a.762.762 0 101.51-.201l-.862-6.465h1.801l2.85 10.689zm3.933-32.562a24.291 24.291 0 014.374-1.547c-.115 1.132-.438 3.184-1.339 5.675-1.196 3.305-3.675 8.044-8.74 12.34-.732-3.275-1.954-6.235-3.642-8.83 2.928-4.085 6.682-6.405 9.347-7.638zm-2.576-9.502l3.07-4.225c.902 2.098 2.062 5.65.967 7.158-.391.539-.97.893-1.627.998a2.478 2.478 0 01-1.857-.446 2.498 2.498 0 01-.553-3.485z"/><path d="M19.133 21.956a22.565 22.565 0 00-1.684-1.151.762.762 0 10-.803 1.294c.54.335 1.068.696 1.57 1.074a.758.758 0 001.067-.15.762.762 0 00-.15-1.067z"/></g><defs><clipPath id="clip0_1_133"><path fill="#fff" d="M0 0h52v52H0z"/></clipPath></defs></svg>