<svg width="38" height="52" fill="none" xmlns="http://www.w3.org/2000/svg"><path d="M35.216 37.254c-.685-3.433-3.906-4.018-3.916-4.023-.035-.01.295.073-7.855-1.947v-.277h6a2.245 2.245 0 002.242-2.242V17.322a2.801 2.801 0 000-1.294v-4.176a.762.762 0 10-1.523 0v2.186a3.957 3.957 0 00-1.357-.498 1.987 1.987 0 00-1.674-1.53c-.872-.115-1.532-.624-1.963-1.511a1.297 1.297 0 00-1.058-.73 1.293 1.293 0 00-1.17.526c-1.309 1.783-4.95 5.78-11.236 5.78-.478 0-.802-.023-.915-.028a2.015 2.015 0 00-2.132 2.011v1.75c0 2.798 1.16 5.51 3.184 7.442a10.19 10.19 0 002.201 1.6v.634H8.072a.72.72 0 01-.72-.72V11.647c0-5.55 4.525-10.122 9.991-10.122h.053c1.959.01 4.22.567 5.76 1.417.977.539 1.58.11 2.544.11 2.354 0 4.24 2.42 4.466 4.597a22 22 0 01.006.649c0 .735.83.792.762.761.42 0 .762-.342.761-.762 0-.136.001-.666-.011-.79-.307-3.03-2.892-5.978-5.983-5.978-1.208 0-1.396.306-1.809.079C22.145.643 19.6.012 17.404 0 11.08-.04 5.83 5.228 5.83 11.646v17.119a2.245 2.245 0 002.243 2.242h5.972v.277l-7.824 1.94-.03.008-.573.168a.887.887 0 00-.05.017c-1.02.38-2.805 1.385-3.294 3.837C-.046 48.902.052 48.404.046 48.444-.234 50.42.756 52 3.135 52h8.238a.762.762 0 100-1.524H8.506v-7.185a.762.762 0 10-1.524 0v7.185H3.134c-1.011 0-1.6-.325-1.609-1.389-.004-.518-.025-.013 2.242-11.535.341-1.708 1.582-2.422 2.309-2.698l.528-.156 4.493-1.114c4.998 5.888 4.702 5.576 4.991 5.858 1.668 1.627 4.049 1.513 5.616-.327l4.704-5.527 4.476 1.11c.13.06 2.358.451 2.838 2.854 2.247 11.422 2.246 11.014 2.242 11.535-.008 1.041-.571 1.39-1.61 1.39h-3.82V43.29a.762.762 0 10-1.524 0v7.185H14.928a.762.762 0 100 1.524h19.426c1.883 0 3.116-1.036 3.133-2.9.007-.872-.045-.456-2.271-11.846zm-6.36-22.142c.637.19 1.128.609 1.308 1.126v.873c-.18.518-.67.937-1.307 1.127v-3.126zm0 4.83V19.8a3.945 3.945 0 001.308-.488v9.453a.72.72 0 01-.72.719h-6v-.589a10.085 10.085 0 005.413-8.954zm-15.96 6.206a8.803 8.803 0 01-2.713-6.34c.045-1.659-.11-1.86.155-2.109a.48.48 0 01.361-.131c5.463.329 10.161-2.073 13.263-6.093.837 1.468 2.063 1.925 2.972 2.045.228.03.4.224.4.451v5.97c0 7.58-9.076 11.325-14.439 6.207zm7.647 11.979c-1.061 1.247-2.547 1.243-3.606-.007l-1.59-1.876h6.799l-1.603 1.883zm2.9-3.406h-9.386l-1.31-1.546 2.242-.555a.77.77 0 00.579-.747v-2.357a10.09 10.09 0 006.353.021c.014 2.435-.033 2.38.042 2.594a.762.762 0 00.536.488l2.257.56-1.313 1.542z" fill="#AE7C78"/></svg>