<svg width="83" height="52" fill="none" xmlns="http://www.w3.org/2000/svg"><path d="M80.87 24.006c-.856-1.019-2.021-1.68-3.358-1.928l-.628-8.52a1.287 1.287 0 001.256-1.064l.242-1.373c.26-1.471-.103-2.924-.993-3.985-.89-1.06-2.192-1.644-3.667-1.644h-9.45l.46-2.609c.13-.74-.059-1.48-.519-2.029A2.438 2.438 0 0062.333 0H15.82c-1.376 0-2.642 1.07-2.883 2.437l-4.115 23.34a1.287 1.287 0 002.535.446l4.115-23.34c.028-.153.225-.309.348-.309h46.353l-4.09 23.203a1.287 1.287 0 102.534.446l.297-1.682H76.31c1.064 0 1.983.398 2.588 1.119a3.18 3.18 0 01.718 1.798H75.34c-.625 0-1.16.449-1.268 1.064l-.484 2.746c-.195 1.106.08 2.202.756 3.007.666.794 1.677 1.25 2.773 1.25h1.212l-.998 5.663h-3.399a6.759 6.759 0 00-1.455-3.059c-1.316-1.569-3.254-2.433-5.454-2.433-3.53 0-6.934 2.31-8.528 5.492h-.517l1.67-9.473a1.287 1.287 0 10-2.535-.447l-1.75 9.92H31.538a6.76 6.76 0 00-1.456-3.058c-1.316-1.57-3.253-2.434-5.454-2.434-3.53 0-6.934 2.31-8.528 5.492H8.717l.515-2.917h5.784a1.287 1.287 0 000-2.575H1.287a1.287 1.287 0 000 2.575h5.33l-.46 2.608c-.13.74.06 1.48.52 2.029.455.543 1.14.855 1.88.855h6.707c-.35 2.183.175 4.24 1.488 5.804C18.068 51.136 20.005 52 22.206 52c4.38 0 8.572-3.556 9.343-7.928.018-.104.032-.207.047-.31h26.063c-.349 2.184.176 4.24 1.488 5.805C60.464 51.136 62.401 52 64.602 52c4.38 0 8.572-3.557 9.343-7.929.018-.103.032-.206.047-.309h4.419c.625 0 1.159-.448 1.268-1.063l2.42-13.73c.329-1.864-.108-3.626-1.23-4.963zm-19.503-2.039l1.483-8.41h11.453l.62 8.41H61.367zm14.48-11.293l-.055.31H63.304l.514-2.918h9.904c.7 0 1.303.257 1.695.724.406.484.559 1.153.43 1.884zm-46.833 32.95c-.564 3.2-3.618 5.802-6.808 5.802-1.427 0-2.663-.538-3.482-1.514-.843-1.004-1.164-2.368-.904-3.84.564-3.199 3.617-5.8 6.807-5.8 1.427 0 2.664.537 3.483 1.513.842 1.004 1.163 2.368.904 3.84zm42.395 0c-.564 3.2-3.617 5.802-6.807 5.802-1.427 0-2.664-.538-3.483-1.514-.842-1.004-1.163-2.368-.904-3.84.564-3.199 3.618-5.801 6.808-5.801 1.426 0 2.663.538 3.482 1.514.843 1.004 1.164 2.368.904 3.84zm7.374-10.673h-1.666c-.343 0-.62-.114-.801-.33-.188-.224-.256-.545-.193-.905l.297-1.683h2.878l-.515 2.918z" fill="#AE7C78"/><path d="M25.538 42.043a2.438 2.438 0 00-1.88-.855c-1.375 0-2.641 1.07-2.882 2.437-.13.74.059 1.48.519 2.029.455.543 1.14.854 1.88.854 1.375 0 2.641-1.07 2.882-2.436.13-.741-.058-1.48-.518-2.03zm42.396 0a2.439 2.439 0 00-1.88-.855c-1.375 0-2.641 1.07-2.882 2.437-.13.74.058 1.48.519 2.029.455.543 1.14.854 1.88.854 1.375 0 2.641-1.07 2.882-2.436a2.48 2.48 0 00-.519-2.03zM51.92 35.697H35.61a1.287 1.287 0 000 2.574h16.31a1.287 1.287 0 000-2.575zm-23.174-5.492H5a1.287 1.287 0 000 2.574h23.745a1.287 1.287 0 000-2.574zm24.58-5.179l-4.766-4.119a1.287 1.287 0 00-1.683 1.948l2.15 1.858H16.389a1.287 1.287 0 000 2.575H48.21l-2.655 1.758a1.287 1.287 0 101.422 2.146l6.218-4.119a1.286 1.286 0 00.13-2.047z" fill="#AE7C78"/></svg>