<svg width="70" height="52" fill="none" xmlns="http://www.w3.org/2000/svg"><path d="M22.002 14.733H10.245a2.574 2.574 0 00-2.571 2.571v9.282a2.574 2.574 0 002.57 2.572h11.758a2.574 2.574 0 002.572-2.572v-9.282a2.574 2.574 0 00-2.572-2.571zm.523 2.571v3.617h-5.377v-4.14h4.854c.288 0 .523.235.523.523zM9.722 26.586v-9.282c0-.288.235-.522.523-.522h4.854v10.327h-4.854a.523.523 0 01-.523-.523zm12.28.523h-4.854v-4.14h5.377v3.617a.523.523 0 01-.523.523zM7.674 40.992c0 .566.458 1.024 1.024 1.024H38.84a1.024 1.024 0 100-2.048H8.698c-.566 0-1.024.458-1.024 1.024zm1.024 2.877a1.024 1.024 0 100 2.049h15.071a1.024 1.024 0 100-2.05H8.698zm18.191-7.764v-2.476a1.024 1.024 0 10-2.049 0v2.476a1.024 1.024 0 102.049 0zm4.682 0v-2.476a1.024 1.024 0 10-2.049 0v2.476a1.024 1.024 0 102.05 0zm4.682 0v-2.476a1.024 1.024 0 10-2.049 0v2.476a1.024 1.024 0 102.049 0zm4.682 0v-2.476a1.024 1.024 0 10-2.049 0v2.476a1.024 1.024 0 102.049 0zm5.755-2.476v2.476a1.024 1.024 0 002.048 0v-2.476a1.024 1.024 0 10-2.049 0zm4.681 0v2.476a1.024 1.024 0 002.049 0v-2.476a1.024 1.024 0 10-2.049 0zm4.682 0v2.476a1.024 1.024 0 002.049 0v-2.476a1.024 1.024 0 10-2.05 0zM8.698 37.13c.566 0 1.024-.46 1.024-1.025v-2.476a1.024 1.024 0 10-2.048 0v2.476c0 .566.458 1.024 1.024 1.024zm5.706-1.025v-2.476a1.024 1.024 0 10-2.049 0v2.476a1.024 1.024 0 002.05 0zm4.682 0v-2.476a1.024 1.024 0 10-2.049 0v2.476a1.024 1.024 0 002.049 0z" fill="#AE7C78"/><path d="M69.928 10.406C69.928 4.668 65.259 0 59.52 0c-5.14 0-9.418 3.746-10.255 8.65H22.761a1.024 1.024 0 100 2.05h26.358c.157 5.638 4.81 10.11 10.398 10.113h.004c.002 0 0 0 0 0h.004c1.496 0 2.947-.33 4.202-.885v17.226a1.024 1.024 0 102.048 0V18.718a10.396 10.396 0 004.153-8.312zM59.52 2.05c4.609 0 8.358 3.749 8.358 8.357 0 4.618-3.76 8.358-8.358 8.358-4.698 0-8.54-3.91-8.349-8.696a8.365 8.365 0 018.35-8.02z" fill="#AE7C78"/><path d="M56.688 14.349a1.024 1.024 0 001.596.186l6.625-6.625a1.024 1.024 0 00-1.449-1.45l-5.71 5.71-2.208-3.58a1.025 1.025 0 00-1.744 1.077l2.89 4.682zM64.75 40.91c-.565 0-1.023.458-1.023 1.024v4.225a3.797 3.797 0 01-3.793 3.793H5.842a3.797 3.797 0 01-3.793-3.793V14.492A3.797 3.797 0 015.842 10.7H17.98a1.024 1.024 0 100-2.048H5.842A5.848 5.848 0 000 14.492v31.666A5.848 5.848 0 005.842 52h54.091a5.848 5.848 0 005.842-5.842v-4.224c0-.566-.459-1.024-1.024-1.024z" fill="#AE7C78"/><path d="M59.34 27.583v-3.028c0-.868-.706-1.575-1.574-1.575h-10.46c-.869 0-1.575.707-1.575 1.575v3.028c0 .868.706 1.575 1.574 1.575h10.46c.87 0 1.576-.707 1.576-1.575zm-2.048-.474H47.78v-2.08h9.513v2.08z" fill="#AE7C78"/></svg>