<svg width="67" height="52" fill="none" xmlns="http://www.w3.org/2000/svg"><path d="M54.683 39.485h4.172a.968.968 0 00.968-.968V5.139a.968.968 0 00-.968-.968H7.226a.968.968 0 00-.968.968v33.378c0 .534.434.968.968.968h42.927a.968.968 0 100-1.936H8.194V6.107h49.693V37.55h-3.204a.968.968 0 100 1.936z" fill="#AE7C78"/><path d="M65.113 41.72h-1.118V3.575A3.58 3.58 0 0060.42 0H15.538a.968.968 0 000 1.936h44.88c.905 0 1.641.735 1.641 1.64V41.72H4.022V3.575c0-.904.736-1.639 1.64-1.639h5.351a.968.968 0 100-1.936H5.662a3.58 3.58 0 00-3.576 3.575V41.72H.968a.968.968 0 00-.968.968v5.215A4.101 4.101 0 004.096 52h4.751a.968.968 0 100-1.936h-4.75a2.163 2.163 0 01-2.161-2.16v-4.248H25.81l.52 1.663a3.56 3.56 0 003.412 2.51h6.596a3.56 3.56 0 003.413-2.51l.52-1.663h23.874v4.248c0 1.19-.97 2.16-2.16 2.16H13.376a.968.968 0 100 1.936h48.607a4.101 4.101 0 004.097-4.096v-5.216a.968.968 0 00-.968-.968zm-27.21 3.022a1.632 1.632 0 01-1.565 1.15h-6.596c-.72 0-1.35-.462-1.564-1.15l-.34-1.086h10.405l-.34 1.086z" fill="#AE7C78"/><path d="M24.305 23.317a.968.968 0 00.95-.778l1.173-5.867a.969.969 0 00-.95-1.157h-7.43a.968.968 0 100 1.936h6.25l-.786 3.93h-7.526l-1.29-7.029a.968.968 0 00-.951-.793h-2.347a.968.968 0 100 1.936h1.54l1.273 6.943v4.084c0 .534.434.968.968.968h.045a1.3 1.3 0 001.259 1.64c.59 0 1.089-.394 1.25-.932a1.303 1.303 0 00.017-.708h2.168l-.015.058a1.302 1.302 0 001.274 1.581c.63 0 1.156-.448 1.277-1.043a1.31 1.31 0 00-.011-.596h.298a.968.968 0 100-1.936h-6.594v-2.236h8.158zm13.093-11.919a.968.968 0 00-.968-.968h-4.172a.968.968 0 00-.968.968v4.172c0 .535.434.968.968.968h4.172a.968.968 0 00.968-.968v-4.172zm-1.936 3.204h-2.236v-2.236h2.236v2.236zm5.14 1.936h8.866a.968.968 0 100-1.936h-8.866a.968.968 0 100 1.936zm0-4.172h14.08a.968.968 0 000-1.936h-14.08a.968.968 0 100 1.936zm-3.204 7.376a.968.968 0 00-.968-.968h-4.172a.968.968 0 00-.968.968v4.172c0 .535.434.968.968.968h4.172a.968.968 0 00.968-.968v-4.172zm-1.936 3.204h-2.236V20.71h2.236v2.236zm5.14 1.936h8.866a.968.968 0 100-1.936h-8.866a.968.968 0 100 1.936zm0-4.172h14.08a.968.968 0 100-1.936h-14.08a.968.968 0 100 1.936zm-4.172 6.408h-4.172a.968.968 0 00-.968.968v4.172c0 .535.434.968.968.968h4.172a.968.968 0 00.968-.968v-4.172a.968.968 0 00-.968-.968zm-.968 4.172h-2.236v-2.236h2.236v2.236zm5.14 0a.968.968 0 100 1.936h8.866a.968.968 0 100-1.936h-8.866zm15.048-3.204a.968.968 0 00-.967-.968h-14.08a.968.968 0 100 1.936h14.08a.968.968 0 00.968-.968z" fill="#AE7C78"/></svg>